<svg width="207" height="29" viewBox="0 0 207 29" fill="none" xmlns="http://www.w3.org/2000/svg">
<path d="M5.08807 28H0.894886L10.3168 1.81818H14.8807L24.3026 28H20.1094L12.7074 6.57386H12.5028L5.08807 28ZM5.79119 17.7472H19.3935V21.071H5.79119V17.7472ZM27.7766 28V8.36364H31.4712V11.483H31.6758C32.0337 10.4261 32.6644 9.59517 33.5678 8.99006C34.4798 8.37642 35.511 8.0696 36.6616 8.0696C36.9002 8.0696 37.1815 8.07812 37.5053 8.09517C37.8377 8.11221 38.0977 8.13352 38.2852 8.15909V11.8153C38.1317 11.7727 37.859 11.7259 37.467 11.6747C37.0749 11.6151 36.6829 11.5852 36.2908 11.5852C35.3874 11.5852 34.582 11.777 33.8746 12.1605C33.1758 12.5355 32.6218 13.0597 32.2127 13.733C31.8036 14.3977 31.5991 15.1562 31.5991 16.0085V28H27.7766ZM51.9194 8.36364V11.4318H41.1935V8.36364H51.9194ZM44.07 3.65909H47.8924V22.2344C47.8924 22.9759 48.0032 23.5341 48.2248 23.9091C48.4464 24.2756 48.7319 24.527 49.0813 24.6634C49.4393 24.7912 49.8271 24.8551 50.2447 24.8551C50.5515 24.8551 50.82 24.8338 51.0501 24.7912C51.2802 24.7486 51.4592 24.7145 51.587 24.6889L52.2773 27.8466C52.0558 27.9318 51.7404 28.017 51.3313 28.1023C50.9222 28.196 50.4109 28.2472 49.7972 28.2557C48.7915 28.2727 47.854 28.0938 46.9847 27.7188C46.1154 27.3438 45.4123 26.7642 44.8754 25.9801C44.3384 25.196 44.07 24.2116 44.07 23.027V3.65909ZM68.5866 19.8565V8.36364H72.4219V28H68.6634V24.5994H68.4588C68.0071 25.6477 67.2827 26.5213 66.2855 27.2202C65.2969 27.9105 64.0653 28.2557 62.5909 28.2557C61.3295 28.2557 60.2131 27.9787 59.2415 27.4247C58.2784 26.8622 57.5199 26.0312 56.9659 24.9318C56.4205 23.8324 56.1477 22.473 56.1477 20.8537V8.36364H59.9702V20.3935C59.9702 21.7315 60.3409 22.7969 61.0824 23.5895C61.8239 24.3821 62.7869 24.7784 63.9716 24.7784C64.6875 24.7784 65.3991 24.5994 66.1065 24.2415C66.8224 23.8835 67.4148 23.3423 67.8835 22.6179C68.3608 21.8935 68.5952 20.973 68.5866 19.8565ZM77.5579 28V8.36364H81.2525V11.483H81.457C81.815 10.4261 82.4457 9.59517 83.3491 8.99006C84.261 8.37642 85.2923 8.0696 86.4428 8.0696C86.6815 8.0696 86.9627 8.07812 87.2866 8.09517C87.619 8.11221 87.8789 8.13352 88.0664 8.15909V11.8153C87.913 11.7727 87.6403 11.7259 87.2482 11.6747C86.8562 11.6151 86.4641 11.5852 86.0721 11.5852C85.1687 11.5852 84.3633 11.777 83.6559 12.1605C82.957 12.5355 82.4031 13.0597 81.994 13.733C81.5849 14.3977 81.3803 15.1562 81.3803 16.0085V28H77.5579ZM106.089 13.1577L102.624 13.7713C102.479 13.3281 102.249 12.9062 101.934 12.5057C101.627 12.1051 101.21 11.777 100.681 11.5213C100.153 11.2656 99.4922 11.1378 98.6996 11.1378C97.6172 11.1378 96.7138 11.3807 95.9893 11.8665C95.2649 12.3437 94.9027 12.9616 94.9027 13.7202C94.9027 14.3764 95.1456 14.9048 95.6314 15.3054C96.1172 15.706 96.9013 16.0341 97.9837 16.2898L101.103 17.0057C102.91 17.4233 104.256 18.0668 105.143 18.9361C106.029 19.8054 106.472 20.9347 106.472 22.3239C106.472 23.5 106.131 24.5483 105.45 25.4688C104.776 26.3807 103.835 27.0966 102.624 27.6165C101.423 28.1364 100.029 28.3963 98.4439 28.3963C96.245 28.3963 94.451 27.9276 93.0618 26.9901C91.6726 26.044 90.8203 24.7017 90.505 22.9631L94.1996 22.4006C94.4297 23.3636 94.9027 24.0923 95.6186 24.5866C96.3345 25.0724 97.2678 25.3153 98.4183 25.3153C99.6712 25.3153 100.673 25.0554 101.423 24.5355C102.173 24.0071 102.548 23.3636 102.548 22.6051C102.548 21.9915 102.317 21.4759 101.857 21.0582C101.406 20.6406 100.711 20.3253 99.7734 20.1122L96.4496 19.3835C94.6172 18.9659 93.2621 18.3011 92.3842 17.3892C91.5149 16.4773 91.0803 15.3224 91.0803 13.9247C91.0803 12.7656 91.4041 11.7514 92.0518 10.8821C92.6996 10.0128 93.5945 9.33523 94.7365 8.84943C95.8786 8.35511 97.1868 8.10795 98.6612 8.10795C100.783 8.10795 102.454 8.56818 103.673 9.48864C104.891 10.4006 105.697 11.6236 106.089 13.1577ZM134.789 8.69602C134.653 7.48579 134.09 6.54829 133.102 5.88352C132.113 5.21023 130.869 4.87358 129.369 4.87358C128.295 4.87358 127.366 5.04403 126.582 5.38494C125.798 5.71733 125.188 6.17756 124.754 6.76562C124.327 7.34517 124.114 8.00568 124.114 8.74716C124.114 9.36932 124.259 9.90625 124.549 10.358C124.847 10.8097 125.235 11.1889 125.712 11.4957C126.198 11.794 126.718 12.0455 127.272 12.25C127.826 12.446 128.359 12.608 128.87 12.7358L131.427 13.4006C132.262 13.6051 133.119 13.8821 133.996 14.2315C134.874 14.581 135.688 15.0412 136.438 15.6122C137.188 16.1832 137.793 16.8906 138.254 17.7344C138.722 18.5781 138.957 19.5881 138.957 20.7642C138.957 22.2472 138.573 23.5639 137.806 24.7145C137.048 25.8651 135.944 26.7727 134.495 27.4375C133.055 28.1023 131.312 28.4347 129.266 28.4347C127.306 28.4347 125.61 28.1236 124.178 27.5014C122.746 26.8793 121.626 25.9972 120.816 24.8551C120.006 23.7045 119.559 22.3409 119.474 20.7642H123.437C123.513 21.7102 123.82 22.4986 124.357 23.1293C124.903 23.7514 125.597 24.2159 126.441 24.5227C127.293 24.821 128.227 24.9702 129.241 24.9702C130.357 24.9702 131.35 24.7955 132.219 24.446C133.097 24.0881 133.788 23.5937 134.29 22.9631C134.793 22.3239 135.045 21.5781 135.045 20.7259C135.045 19.9503 134.823 19.3153 134.38 18.821C133.945 18.3267 133.353 17.9176 132.603 17.5938C131.862 17.2699 131.022 16.9844 130.085 16.7372L126.991 15.8935C124.894 15.3224 123.232 14.483 122.005 13.375C120.786 12.267 120.177 10.8011 120.177 8.97727C120.177 7.46875 120.586 6.15199 121.404 5.02699C122.222 3.90199 123.33 3.02841 124.728 2.40625C126.126 1.77557 127.702 1.46023 129.458 1.46023C131.231 1.46023 132.795 1.77131 134.15 2.39347C135.513 3.01563 136.587 3.87216 137.371 4.96307C138.156 6.04545 138.565 7.28977 138.599 8.69602H134.789ZM143.37 28V8.36364H147.193V28H143.37ZM145.301 5.33381C144.636 5.33381 144.065 5.11221 143.588 4.66903C143.119 4.21733 142.885 3.6804 142.885 3.05824C142.885 2.42756 143.119 1.89062 143.588 1.44744C144.065 0.995738 144.636 0.769886 145.301 0.769886C145.966 0.769886 146.532 0.995738 147.001 1.44744C147.478 1.89062 147.717 2.42756 147.717 3.05824C147.717 3.6804 147.478 4.21733 147.001 4.66903C146.532 5.11221 145.966 5.33381 145.301 5.33381ZM156.158 1.81818V28H152.335V1.81818H156.158ZM161.3 28V8.36364H165.123V28H161.3ZM163.23 5.33381C162.566 5.33381 161.995 5.11221 161.517 4.66903C161.049 4.21733 160.814 3.6804 160.814 3.05824C160.814 2.42756 161.049 1.89062 161.517 1.44744C161.995 0.995738 162.566 0.769886 163.23 0.769886C163.895 0.769886 164.462 0.995738 164.931 1.44744C165.408 1.89062 165.647 2.42756 165.647 3.05824C165.647 3.6804 165.408 4.21733 164.931 4.66903C164.462 5.11221 163.895 5.33381 163.23 5.33381ZM174.087 16.3409V28H170.265V8.36364H173.934V11.5597H174.177C174.629 10.5199 175.336 9.68466 176.299 9.05398C177.271 8.4233 178.494 8.10795 179.968 8.10795C181.306 8.10795 182.478 8.3892 183.484 8.9517C184.489 9.50568 185.269 10.3324 185.823 11.4318C186.377 12.5312 186.654 13.8906 186.654 15.5099V28H182.832V15.9702C182.832 14.5469 182.461 13.4347 181.719 12.6335C180.978 11.8239 179.96 11.419 178.664 11.419C177.778 11.419 176.989 11.6108 176.299 11.9943C175.617 12.3778 175.076 12.9403 174.675 13.6818C174.283 14.4148 174.087 15.3011 174.087 16.3409ZM206.495 13.1577L203.031 13.7713C202.886 13.3281 202.656 12.9062 202.34 12.5057C202.033 12.1051 201.616 11.777 201.087 11.5213C200.559 11.2656 199.898 11.1378 199.106 11.1378C198.023 11.1378 197.12 11.3807 196.396 11.8665C195.671 12.3437 195.309 12.9616 195.309 13.7202C195.309 14.3764 195.552 14.9048 196.038 15.3054C196.523 15.706 197.308 16.0341 198.39 16.2898L201.509 17.0057C203.316 17.4233 204.663 18.0668 205.549 18.9361C206.435 19.8054 206.879 20.9347 206.879 22.3239C206.879 23.5 206.538 24.5483 205.856 25.4688C205.183 26.3807 204.241 27.0966 203.031 27.6165C201.829 28.1364 200.435 28.3963 198.85 28.3963C196.651 28.3963 194.857 27.9276 193.468 26.9901C192.079 26.044 191.227 24.7017 190.911 22.9631L194.606 22.4006C194.836 23.3636 195.309 24.0923 196.025 24.5866C196.741 25.0724 197.674 25.3153 198.825 25.3153C200.077 25.3153 201.079 25.0554 201.829 24.5355C202.579 24.0071 202.954 23.3636 202.954 22.6051C202.954 21.9915 202.724 21.4759 202.263 21.0582C201.812 20.6406 201.117 20.3253 200.18 20.1122L196.856 19.3835C195.023 18.9659 193.668 18.3011 192.79 17.3892C191.921 16.4773 191.487 15.3224 191.487 13.9247C191.487 12.7656 191.81 11.7514 192.458 10.8821C193.106 10.0128 194.001 9.33523 195.143 8.84943C196.285 8.35511 197.593 8.10795 199.067 8.10795C201.19 8.10795 202.86 8.56818 204.079 9.48864C205.298 10.4006 206.103 11.6236 206.495 13.1577Z" fill="#F4E2C0"/>
</svg>
