<svg width="128" height="128" viewBox="0 0 128 128" fill="none" xmlns="http://www.w3.org/2000/svg">
<circle cx="64" cy="64" r="50" fill="#F4E2C0"/>
<path d="M43.0852 48.5455L33.7102 83.375H28.4972L37.8722 48.5455H43.0852ZM51.1286 79H44.5376L54.5803 49.9091H62.5064L72.5348 79H65.9439L58.657 56.5568H58.4297L51.1286 79ZM50.7166 67.5653H66.2848V72.3665H50.7166V67.5653ZM91.1534 58.2756C91.0398 57.1297 90.5521 56.2396 89.6903 55.6051C88.8286 54.9706 87.6591 54.6534 86.1818 54.6534C85.178 54.6534 84.3305 54.7955 83.6392 55.0795C82.9479 55.3542 82.4176 55.7377 82.0483 56.2301C81.6884 56.7225 81.5085 57.2812 81.5085 57.9062C81.4896 58.4271 81.5985 58.8816 81.8352 59.2699C82.0814 59.6581 82.4176 59.9943 82.8438 60.2784C83.2699 60.553 83.7623 60.7945 84.321 61.0028C84.8797 61.2017 85.4763 61.3722 86.1108 61.5142L88.7244 62.1392C89.9934 62.4233 91.1581 62.8021 92.2188 63.2756C93.2794 63.7491 94.1979 64.3314 94.9744 65.0227C95.7509 65.714 96.3523 66.5284 96.7784 67.4659C97.214 68.4034 97.4366 69.4782 97.446 70.6903C97.4366 72.4706 96.982 74.0142 96.0824 75.321C95.1922 76.6184 93.9044 77.6269 92.2188 78.3466C90.5426 79.0568 88.5208 79.4119 86.1534 79.4119C83.8049 79.4119 81.7595 79.0521 80.017 78.3324C78.2841 77.6127 76.9299 76.5473 75.9545 75.1364C74.9886 73.7159 74.482 71.9593 74.4347 69.8665H80.3864C80.4527 70.8419 80.732 71.6562 81.2244 72.3097C81.7263 72.9536 82.3939 73.4413 83.2273 73.7727C84.0701 74.0947 85.0218 74.2557 86.0824 74.2557C87.1241 74.2557 88.0284 74.1042 88.7955 73.8011C89.572 73.4981 90.1733 73.0767 90.5994 72.5369C91.0256 71.9972 91.2386 71.3769 91.2386 70.6761C91.2386 70.0227 91.0445 69.4735 90.6562 69.0284C90.2775 68.5833 89.7188 68.2045 88.9801 67.892C88.2509 67.5795 87.3561 67.2955 86.2955 67.0398L83.1278 66.2443C80.6752 65.6477 78.7386 64.715 77.3182 63.446C75.8977 62.1771 75.1922 60.4678 75.2017 58.3182C75.1922 56.5568 75.661 55.018 76.608 53.7017C77.5644 52.3854 78.8759 51.358 80.5426 50.6193C82.2093 49.8807 84.1032 49.5114 86.2244 49.5114C88.3835 49.5114 90.268 49.8807 91.8778 50.6193C93.4972 51.358 94.7566 52.3854 95.6562 53.7017C96.5559 55.018 97.0199 56.5426 97.0483 58.2756H91.1534Z" fill="black"/>
</svg>
